<?xml version="1.0" encoding="UTF-8" standalone="no"?>
<!DOCTYPE svg PUBLIC "-//W3C//DTD SVG 1.1//EN" "http://www.w3.org/Graphics/SVG/1.1/DTD/svg11.dtd">
<svg width="100%" height="100%" viewBox="0 0 4000 3000" version="1.1" xmlns="http://www.w3.org/2000/svg" xmlns:xlink="http://www.w3.org/1999/xlink" xml:space="preserve" xmlns:serif="http://www.serif.com/" style="fill-rule:evenodd;clip-rule:evenodd;stroke-linecap:round;stroke-linejoin:round;stroke-miterlimit:1.5;">
    <rect id="Web-12" serif:id="Web 12" x="0" y="0" width="4000" height="3000" style="fill:none;"/>
    <g id="Web-121" serif:id="Web 12">
        <rect x="-0" y="0" width="4000" height="3000" style="fill:white;"/>
        <g id="Back">
            <path d="M3632.13,2465.6c-0,-5.077 -4.123,-9.2 -9.2,-9.2l-3245.86,0c-5.077,0 -9.2,4.123 -9.2,9.2l0,1.6c0,5.078 4.123,9.2 9.2,9.2l3245.86,0c5.077,0 9.2,-4.122 9.2,-9.2l-0,-1.6Z" style="fill:rgb(150,173,207);"/>
            <path d="M457.025,2456.39c-0,0 -279.584,-386.26 203.701,-734.811c299.275,-215.841 44.358,-425.599 44.358,-705.437c-0,-359.791 388.205,-598.38 703.626,-514.506c410.83,109.244 497.347,408.58 984.699,93.447c462.63,-299.147 967.758,71.436 830.754,478.794c-285.088,847.652 624.505,483.873 269.92,1382.51l-3037.06,0Z" style="fill:rgb(245,249,255);"/>
        </g>
        <g id="Front">
            <g>
                <path d="M1826.31,908.263c69.375,-26.702 146.869,-41.616 228.599,-41.616c81.729,-0 159.223,14.914 228.599,41.616c7.726,2.974 16.413,-0.884 19.387,-8.61c2.973,-7.726 -0.885,-16.413 -8.611,-19.387c-72.648,-27.963 -153.79,-43.619 -239.375,-43.619c-85.586,-0 -166.728,15.656 -239.376,43.619c-7.726,2.974 -11.584,11.661 -8.61,19.387c2.973,7.726 11.66,11.584 19.387,8.61Z" style="fill:rgb(84,116,172);"/>
                <path d="M1866.14,986.279c57.506,-20.336 121.436,-31.654 188.763,-31.654c67.326,0 131.257,11.318 188.763,31.654c7.805,2.76 16.382,-1.336 19.142,-9.141c2.76,-7.805 -1.335,-16.382 -9.141,-19.143c-60.554,-21.414 -127.869,-33.37 -198.764,-33.37c-70.896,0 -138.21,11.956 -198.765,33.37c-7.805,2.761 -11.901,11.338 -9.141,19.143c2.76,7.805 11.338,11.901 19.143,9.141Z" style="fill:rgb(84,116,172);"/>
                <path d="M1906.41,1059.82c45.115,-16.301 95.439,-25.388 148.491,-25.388c53.051,-0 103.376,9.087 148.49,25.388c7.786,2.813 16.392,-1.224 19.205,-9.01c2.813,-7.786 -1.224,-16.391 -9.01,-19.205c-48.214,-17.42 -101.989,-27.173 -158.685,-27.173c-56.697,-0 -110.471,9.753 -158.686,27.173c-7.786,2.814 -11.823,11.419 -9.01,19.205c2.814,7.786 11.419,11.823 19.205,9.01Z" style="fill:rgb(84,116,172);"/>
                <path d="M1946.18,1131.34c32.895,-12.268 69.779,-19.124 108.721,-19.124c38.942,0 75.826,6.856 108.72,19.124c7.757,2.893 16.403,-1.056 19.296,-8.813c2.893,-7.757 -1.056,-16.403 -8.813,-19.296c-36.068,-13.452 -76.504,-21.015 -119.203,-21.015c-42.7,0 -83.135,7.563 -119.204,21.015c-7.757,2.893 -11.706,11.539 -8.813,19.296c2.893,7.757 11.539,11.706 19.296,8.813Z" style="fill:rgb(84,116,172);"/>
                <path d="M1986.05,1204.98c20.56,-8.402 43.995,-13.132 68.851,-13.132c24.856,-0 48.291,4.73 68.85,13.132c7.664,3.132 16.428,-0.547 19.56,-8.211c3.132,-7.663 -0.547,-16.428 -8.211,-19.56c-23.952,-9.788 -51.242,-15.361 -80.199,-15.361c-28.958,-0 -56.248,5.573 -80.2,15.361c-7.664,3.132 -11.343,11.897 -8.211,19.56c3.132,7.664 11.896,11.343 19.56,8.211Z" style="fill:rgb(84,116,172);"/>
                <path d="M2094.26,1235.13c-4.94,-4.387 -12.38,-4.387 -17.32,-0c-9.172,8.145 -22.342,19.841 -22.342,19.841c-0,-0 -14.141,-12.557 -23.609,-20.965c-4.762,-4.229 -11.934,-4.229 -16.696,-0c-0,0 -0.001,0.001 -0.001,0.001c-2.821,2.505 -4.435,6.096 -4.435,9.868c0,3.773 1.614,7.364 4.435,9.869c9.225,8.193 20.843,18.51 20.843,18.51c0,-0 -10.753,9.549 -19.593,17.399c-2.895,2.572 -4.553,6.259 -4.553,10.132c0,3.872 1.658,7.56 4.553,10.131c0.001,0.001 0.001,0.001 0.001,0.001c4.94,4.387 12.38,4.387 17.32,0c9.173,-8.145 22.343,-19.84 22.343,-19.84c-0,-0 14.14,12.557 23.608,20.965c4.762,4.229 11.934,4.229 16.696,-0c0,-0.001 0.001,-0.001 0.001,-0.002c2.821,-2.504 4.435,-6.096 4.435,-9.868c-0,-3.772 -1.614,-7.364 -4.435,-9.869c-9.225,-8.192 -20.843,-18.509 -20.843,-18.509c-0,-0 10.753,-9.549 19.593,-17.4c2.896,-2.571 4.553,-6.259 4.553,-10.131c-0,-3.873 -1.657,-7.561 -4.553,-10.132c-0,-0 -0.001,-0.001 -0.001,-0.001Z" style="fill:rgb(233,109,93);"/>
            </g>
            <g>
                <g>
                    <rect x="1258.07" y="2309.7" width="167.081" height="81.888" style="fill:rgb(255,196,205);"/>
                    <path d="M1429.63,2368.72l-173.541,0c0,0 -25.285,41.623 0,86.35c6.315,2.448 279.226,0 279.226,0c-6.017,-54.07 -59.284,-73.212 -105.685,-86.35Z" style="fill:rgb(19,36,107);"/>
                    <rect x="1065.33" y="2309.7" width="167.081" height="81.888" style="fill:rgb(255,196,205);"/>
                    <path d="M1236.89,2368.72l-173.541,0c0,0 -25.285,41.623 0,86.35c6.315,2.448 279.226,0 279.226,0c-6.017,-54.07 -59.284,-73.212 -105.685,-86.35Z" style="fill:rgb(19,38,111);"/>
                    <path d="M1052.24,2350.93l-10.828,-629.958l238.974,13.479l180.16,-13.479l-23.785,629.958c-21.391,1.446 -120.826,3.14 -186.661,0l-197.86,0Z" style="fill:rgb(149,164,219);"/>
                    <path d="M1257.55,2351.26c-2.52,-0.102 -5.009,-0.212 -7.451,-0.329l-10.302,0l24.7,-466.214l-6.947,466.543Zm200.903,-574.878c-111.637,35.125 -333.69,23.805 -415.779,18.079l-1.263,-73.488l238.974,13.479l180.16,-13.479l-2.092,55.409Z" style="fill:rgb(123,144,208);"/>
                </g>
                <g>
                    <path d="M1180.28,1126.06l-13.051,146.389c-0,0 87.992,76.494 139.933,20.145l0,-88.698l-110.798,-77.836l-16.084,-0Z" style="fill:url(#_Linear1);"/>
                    <path d="M1424.48,1025.98c-0,5.957 -6.036,59.049 -28.372,77.935l-4.207,-80.064c-0,0 32.579,-3.828 32.579,2.129Z" style="fill:rgb(75,40,14);"/>
                    <path d="M1393.29,1017.89c0,-0 24.979,145.85 -35.356,178.023c-52.537,28.015 -157.505,19.264 -162.984,-61.869c0,0 -37.695,0 -34.539,-30.134c4.074,-38.899 42.561,-48.676 58.647,-0l0,-86.02l174.232,-0Z" style="fill:url(#_Linear2);"/>
                    <path d="M1219.06,1103.91c0,-0 1.74,42.043 16.047,26.128c14.307,-15.915 17.953,-57.146 18.234,-75.38c25.238,17.199 45.325,8.641 63.467,-9.642c14.151,20.252 59.553,22.367 64.203,0c27.143,5.773 55.536,0 46.266,-37.1c10.309,-27.105 19.15,-65.231 -20.79,-72.355c-1.257,-34.096 -14.587,-57.052 -54.25,-46.976c-17.393,-29.556 -40.43,-43.29 -72.916,-20.298c-32.35,-7.311 -54.361,5.205 -65.209,30.748c-73.105,-10.563 -71.796,38.732 -69.417,60.979c-30.847,17.174 -34.453,52.642 -5.267,78.798c-17.752,22.863 -30.049,84.292 0,92.009c7.026,15.952 21.476,30.736 37.015,34.066l4.393,-32.659c-31.183,-6.996 -23.381,-48.015 -4.393,-57.675c15.762,-8.018 31.266,-0.004 42.617,29.357Z" style="fill:rgb(123,66,23);"/>
                </g>
                <path d="M1307.48,1261.01c-0,-0 -8.508,40.972 -40.213,40.972c-39.571,0 -100.046,-50.502 -100.046,-50.502c-0,0 -112.988,9.53 -172.339,61.828c-67.588,59.555 -15.546,220.296 30.58,259.177c0,-0 -11.171,142.923 7.426,161.52c21.403,21.402 388.184,25.574 414.698,11.335c20.054,-10.771 -10.273,-258.305 -10.273,-258.305l44.053,69.13l83.943,-84.74c-0,-0 -66.889,-161.429 -105.354,-179.048c-44.002,-20.156 -152.475,-31.367 -152.475,-31.367Z" style="fill:url(#_Linear3);"/>
                <path d="M1025.07,1578.05c0.948,-2.312 1.864,-4.236 2.733,-5.707l100.595,-170.349c-0,-0 90.257,68.524 135.51,98.011c13.836,9.015 33.521,19.467 54.043,29.574c45.098,22.212 34.913,223.589 34.913,223.589c-1.69,0.035 -3.394,0.068 -5.126,0.1c-27.069,-2.528 -160.103,-19.03 -261.148,-105.374c-4.732,-4.044 -32.285,14.055 -36.532,43.587c-2.317,16.112 -0.605,34.304 2.236,49.1c-10.198,-1.973 -16.987,-4.164 -19.397,-6.574c-16.395,-16.395 -9.654,-129.419 -7.827,-155.957Z" style="fill:url(#_Linear4);"/>
                <path d="M1167.23,1247.38c-0,0 68.341,58.275 100.046,54.603c31.705,-3.671 40.662,-42.379 40.662,-42.379" style="fill:none;stroke:white;stroke-width:14px;"/>
                <g>
                    <path d="M862.648,2413.44l-363.389,0c-11.039,0 -20,9.67 -20,21.58c-0,11.91 8.961,21.579 20,21.579l493.823,0c1.629,0.024 3.226,-0.167 4.762,-0.552l0.017,-0.004l0.033,-0.009c3.23,-0.814 6.159,-2.473 8.576,-4.748l0.038,-0.037l0.027,-0.025l0.026,-0.025l0.039,-0.037c2.401,-2.295 4.301,-5.217 5.463,-8.567l0.012,-0.035l0.006,-0.017c0.667,-1.931 1.084,-3.991 1.211,-6.135l-0,-0.005c0.129,-2.145 -0.04,-4.245 -0.472,-6.252l-0.004,-0.018l-0.007,-0.035c-0.755,-3.485 -2.293,-6.645 -4.401,-9.253l-0.034,-0.042l-0.023,-0.028l-0.024,-0.029l-0.034,-0.041c-2.127,-2.591 -4.835,-4.641 -7.94,-5.895l-0.032,-0.014l-0.016,-0.006c-1.474,-0.592 -3.029,-1.002 -4.643,-1.204c-127.608,-17.856 -153.661,-75.155 -184.623,-127.962c-18.374,-31.338 -38.503,-61.033 -75.584,-83.215c-35.216,-21.066 -86.468,-35.477 -168.589,-35.869l0.092,-0.127c4.234,-5.433 10.215,-11.158 17.752,-16.954c34.378,-26.433 98.351,-52.209 185.964,-52.209c21.957,0 37.342,-2.332 47.467,-5.977c11.197,-4.031 17.951,-10.158 21.947,-16.499c5.736,-9.103 7.198,-19.84 3.394,-32.155c-4.306,-13.944 -18.841,-32.561 -38.605,-52.578c-17.724,-17.951 -39.606,-37.998 -58.61,-58.422c-12.211,-13.124 -23.225,-26.329 -30.644,-39.236c-5.217,-9.077 -9.002,-17.549 -7.74,-25.702c0.64,-4.136 2.975,-7.829 6.682,-11.435c6.095,-5.928 15.14,-11.068 27.429,-15.84c72.278,-28.07 120.317,-19.55 157.258,-20.529c23.335,-0.619 43.03,-4.709 61.476,-18.205c17.362,-12.704 34.005,-34.348 50.7,-72.622c22.677,-51.985 44.011,-81.585 70.47,-97.226c19.376,-11.453 41.215,-15.195 67.349,-16.092c29.255,-1.005 63.413,1.683 104.726,3.47c11.029,0.477 20.343,-8.797 20.785,-20.698c0.442,-11.9 -8.153,-21.949 -19.183,-22.426c-88.597,-3.833 -146.385,-9.599 -192.896,17.895c-32.17,19.017 -59.872,53.492 -87.443,116.698c-14.714,33.733 -27.739,51.26 -43.575,59.372c-16.278,8.338 -34.511,6.993 -57.075,6.54c-36.659,-0.736 -82.888,-1.35 -146.139,23.214c-35.561,13.811 -52.15,32.954 -58.042,52.157c-5.903,19.24 -1.904,40.691 10.327,62.592c14.006,25.079 39.366,51.688 64.597,76.401c19.657,19.255 39.131,37.331 51.46,52.668c2.044,2.543 4.143,5.816 5.775,8.543c-0.888,0.269 -1.807,0.513 -2.69,0.696c-7.313,1.519 -16.928,2.237 -29.2,2.237c-96.669,0 -167.457,29.183 -206.685,58.337c-19.591,14.56 -31.887,29.775 -37.358,42.011c-7.262,16.24 -5.109,30.112 1.907,39.972c5.758,8.094 16.701,15.269 34.788,15.269c74.592,0 121.087,11.544 152.734,30.475c30.284,18.116 46.169,42.95 61.175,68.543c21.55,36.753 41.059,75.357 85.413,104.742Z" style="fill:rgb(84,116,172);"/>
                    <path d="M1313.38,1513.72c0,-5.175 -4.201,-9.376 -9.376,-9.376l-98.452,0c-5.175,0 -9.376,4.201 -9.376,9.376l-0,162.205c-0,5.175 4.201,9.376 9.376,9.376l98.452,-0c5.175,-0 9.376,-4.201 9.376,-9.376l0,-162.205Z" style="fill:rgb(44,64,135);"/>
                    <path d="M1734.69,1325.56c-0,-0 -172.244,-9.181 -210.976,-0c-48.265,11.441 -156.195,82.022 -205.525,115.456c-15.938,10.838 -25.477,28.862 -25.477,48.135c-0.003,52.445 -0.003,158.896 -0.003,211.341c-0,19.274 9.54,37.299 25.478,48.137c49.332,33.432 157.262,104.014 205.527,115.454c38.732,9.181 210.976,0 210.976,0l-0,-538.523Z" style="fill:rgb(207,226,252);"/>
                    <path d="M1292.72,1492.55c7.117,-8.52 17.451,-19.947 27.934,-28.262c25.364,-20.117 180.988,-113.793 213.496,-113.793l200.548,0l-0,-24.932c-0,-0 -172.244,-9.181 -210.976,-0c-48.265,11.441 -156.195,82.022 -205.525,115.456c-15.938,10.838 -25.477,28.862 -25.477,48.135l-0,3.396Z" style="fill:rgb(228,239,253);"/>
                    <path d="M1734.69,1864.08l-0,-34.021c-0,-0 -152.833,12.624 -199.723,-0c-46.89,-12.624 -162.221,-77.078 -162.221,-77.078l3.593,-10.59c0,-0 49.924,17.208 72.995,10.59c23.071,-6.619 55.364,-54.263 57.137,-81.742c1.773,-27.479 -44.026,-40.185 -44.026,-40.185c-0,0 14.121,-1.867 17.903,-11.398c3.782,-9.531 -54.311,-30.711 -67.624,-30.257l4.841,-14.977l-124.854,-64.335c-0.002,56.177 -0.002,144.224 -0.002,190.402c-0,19.274 9.54,37.299 25.478,48.137c49.332,33.432 157.262,104.014 205.527,115.454c38.732,9.181 210.976,0 210.976,0Z" style="fill:rgb(169,200,244);"/>
                    <circle cx="1558.28" cy="1594.82" r="30" style="fill:rgb(127,149,206);"/>
                    <path d="M2051.54,1440.35c0,-15.968 -12.945,-28.914 -28.914,-28.914c-72.915,0 -258.518,0 -258.518,0l0,57.831c0,-0 185.603,-0 258.518,-0c15.969,-0 28.914,-12.946 28.914,-28.914l0,-0.003Z" style="fill:rgb(90,128,195);"/>
                    <path d="M2051.54,1749.29c0,-15.968 -12.945,-28.914 -28.914,-28.914c-72.915,0 -258.518,0 -258.518,0l0,57.831c0,-0 185.603,-0 258.518,-0c15.969,-0 28.914,-12.945 28.914,-28.914l0,-0.003Z" style="fill:rgb(90,128,195);"/>
                    <path d="M1813.13,1307.08c0,-8.117 -6.59,-14.707 -14.707,-14.707l-68.636,-0c-8.117,-0 -14.707,6.59 -14.707,14.707l-0,575.481c-0,8.117 6.59,14.707 14.707,14.707l68.636,0c8.117,0 14.707,-6.59 14.707,-14.707l0,-575.481Z" style="fill:rgb(169,200,244);"/>
                    <path d="M1813.13,1882.56l0,-67.533l-98.05,-0l-0,67.533c-0,8.117 6.59,14.707 14.707,14.707l68.636,0c8.117,0 14.707,-6.59 14.707,-14.707Z" style="fill:rgb(134,170,233);"/>
                    <path d="M1715.09,1307.08l-0,48.439l98.05,0l0,-48.439c0,-8.117 -6.59,-14.707 -14.707,-14.707l-68.636,-0c-8.117,-0 -14.707,6.59 -14.707,14.707Z" style="fill:rgb(189,213,247);"/>
                </g>
                <path d="M1391.9,1588.86c-0,-0 82.389,-3.068 85.457,17.971c3.068,21.039 -18.693,19.286 -30.244,21.039c0,0 46.9,19.286 51.722,38.134c4.821,18.848 -33.187,79.336 -61.519,79.336c-45.416,-0 -86.195,-38.134 -86.195,-38.134l40.779,-118.346Z" style="fill:rgb(255,196,205);"/>
                <path d="M1128.39,1401.99c-0,-0 84.637,75.079 129.891,104.566c44.238,28.826 153.902,65.783 153.902,65.783l-50.597,161.664c-0,0 -224.29,-0.822 -333.791,-161.664l100.595,-170.349Z" style="fill:url(#_Linear5);"/>
            </g>
            <g>
                <g>
                    <rect x="2666.65" y="2309.98" width="167.081" height="81.888" style="fill:rgb(255,196,205);"/>
                    <path d="M2662.17,2369l173.541,-0c-0,-0 25.285,41.623 -0,86.35c-6.315,2.448 -277.303,1.088 -277.303,1.088c6.018,-54.071 57.361,-74.301 103.762,-87.438Z" style="fill:rgb(19,36,107);"/>
                    <rect x="2859.38" y="2309.98" width="167.081" height="81.888" style="fill:rgb(255,196,205);"/>
                    <path d="M2854.9,2369l173.541,-0c-0,-0 25.285,41.623 -0,86.35c-6.315,2.448 -279.226,-0 -279.226,-0c6.018,-54.071 59.284,-73.213 105.685,-86.35Z" style="fill:rgb(19,38,111);"/>
                    <path d="M3039.56,2351.21l10.828,-629.959l-238.974,13.479l-180.16,-13.479l23.785,629.959c21.392,1.445 120.826,3.14 186.661,-0l197.86,-0Z" style="fill:rgb(166,186,232);"/>
                    <path d="M2834.25,2351.54c2.52,-0.103 5.009,-0.213 7.451,-0.329l10.303,-0l-24.701,-466.215l6.947,466.544Zm-200.903,-574.879c111.637,35.126 333.69,23.806 415.779,18.08l1.263,-73.489l-238.974,13.479l-180.16,-13.479l2.092,55.409Z" style="fill:rgb(134,157,210);"/>
                </g>
                <g>
                    <path d="M2909.3,1113.31l13.052,146.389c-0,0 -87.993,76.495 -139.934,20.146l0,-88.699l110.799,-77.836l16.083,-0Z" style="fill:url(#_Linear6);"/>
                    <path d="M2668.5,1005.14c0,5.957 -0.561,75.807 24.967,86.02l4.208,-80.063c-0,-0 -29.175,-11.914 -29.175,-5.957Z" style="fill:rgb(102,55,19);"/>
                    <path d="M2696.28,1005.14c0,-0 -24.978,145.851 35.357,178.023c52.537,28.015 157.504,19.265 162.983,-61.868c0,-0 37.696,-0 34.54,-30.135c-4.074,-38.898 -42.561,-48.675 -58.648,0l0,-86.02l-174.232,-0Z" style="fill:url(#_Linear7);"/>
                    <path d="M2870.52,1091.16c0,0 -1.74,42.043 -16.046,26.128c-14.307,-15.915 -17.954,-69.85 -18.234,-88.084c-0,-0 -27.638,15.229 -48.397,12.704c-20.759,-2.525 -61.868,-17.799 -79.274,-9.641c-17.405,8.158 -43.477,-9.798 -51.585,-31.116c-10.309,-27.106 -5.76,-63.901 34.18,-71.025c40.481,-7.221 26.033,-38.244 67.458,-49.969c38.47,-10.888 57.797,12.769 103.215,12.777c38.229,0.007 36.126,45.958 36.126,45.958c-0,0 26.462,-8.441 46.923,8.372c21.129,17.363 -5.642,90.097 8.766,143.896c5.86,21.879 -15.969,55.717 -40.515,60.977l-4.393,-32.659c31.184,-6.996 23.381,-48.015 4.393,-57.675c-15.761,-8.018 -31.266,-0.004 -42.617,29.357Z" style="fill:rgb(123,66,23);"/>
                </g>
                <path d="M2780.84,1249.83c-0,-0 10.785,39.398 36.718,39.398c39.571,0 104.8,-50.502 104.8,-50.502c-0,0 98.741,12.317 141.758,41.118c108.176,72.425 45.835,224.686 -0.292,263.567c0,-0 11.463,159.244 -7.134,177.84c-21.402,21.403 -402.172,25.574 -428.686,11.335c-20.055,-10.77 13.989,-239.07 13.989,-239.07l-62.636,49.895l-83.041,-154.173c0,0 133.725,-98.176 172.19,-115.796c44.002,-20.156 112.334,-23.612 112.334,-23.612Z" style="fill:url(#_Linear8);"/>
                <path d="M2563.92,1340.8c60.758,33.595 172.16,100.256 182.632,128.989c6.855,18.809 2.937,32.952 2.937,32.952l48.494,-0c45.742,-22.45 91.483,-53.571 137.225,-90.169l128.811,133.767c1.446,21.717 9.772,157.814 -7.334,174.919c-3.953,3.953 -20.165,7.319 -44.148,10.089c2.001,-23.16 3.25,-56.374 -3.035,-65.212c-0,0 -49.33,32.663 -91.164,48.809c-26.744,10.323 -59.632,19.056 -88,25.586c-66.122,1.001 -130.779,0.091 -168.948,-2.772l-38.409,-76.319c4.49,-70.567 19.007,-167.916 19.007,-167.916l-62.636,49.895l-59.535,-110.533c0.206,-18.261 2.442,-43.84 11.191,-68.745c9.821,-7.034 21.084,-15.042 32.912,-23.34Z" style="fill:url(#_Linear9);"/>
                <path d="M2775.66,1249.23c-0,-0 7.175,40.559 34.516,43.801c44.703,5.3 115.562,-54.306 115.562,-54.306" style="fill:none;stroke:white;stroke-width:14px;"/>
                <g>
                    <path d="M3308.37,2217.25c1.795,2.88 4.27,5.333 7.336,7.053c11.04,6.194 20.934,13.531 27.369,18.67l-0.855,0.339c-11.141,4.063 -26.229,7.473 -43.446,11.077c-40.108,8.394 -90.899,17.532 -133.36,34.661c-31.381,12.659 -58.296,29.888 -75.171,53.027c-10.896,14.941 -14.127,28.619 -13.041,40.346c1.126,12.15 6.828,23.27 17.507,32.658c10.8,9.496 27.887,17.547 49.455,23.485c102.69,28.269 318.221,14.861 318.221,14.861c11.019,-0.703 19.43,-10.834 18.771,-22.609c-0.658,-11.775 -10.138,-20.764 -21.157,-20.06c0,-0 -207.166,13.581 -305.856,-13.586c-11.095,-3.055 -20.664,-6.572 -28.037,-10.894c-4.336,-2.541 -8.174,-4.427 -9.085,-7.986c-0.783,-3.063 1.8,-5.862 4.772,-9.938c23.601,-32.362 73.331,-47.229 120.933,-58.476c54.996,-12.995 108.146,-20.817 128.859,-33.867c11.815,-7.443 17.192,-17.161 18.261,-26.867c0.779,-7.079 -0.528,-15.069 -5.921,-23.622c-5.4,-8.564 -17.364,-19.583 -38.464,-32.527c-1.685,-2.538 -3.916,-4.721 -6.634,-6.325c-23.26,-13.727 -39.439,-26.568 -49.722,-39.112c-7.687,-9.377 -11.656,-18.078 -11.895,-26.761c-0.241,-8.758 3.159,-17.053 8.158,-25.303c6.561,-10.828 15.908,-21.297 26.363,-31.711c32.582,-32.457 74.745,-64.175 94.257,-97.047c25.969,-43.748 29.596,-81.283 20.315,-110.856c-8.961,-28.551 -30.315,-50.801 -59.688,-64.634c-39.3,-18.508 -93.567,-21.821 -146.34,-6.078c-20.953,6.251 -48.592,20.396 -80.326,28.875c-42.411,11.331 -93.013,11.391 -143.936,-40.422c-39.686,-40.379 -50.837,-86.408 -69.33,-121.267c-11.507,-21.691 -25.41,-39.733 -46.556,-52.192c-20.181,-11.89 -47.434,-18.823 -87.142,-17.122c-11.029,0.473 -19.625,10.426 -19.183,22.212c0.442,11.787 9.756,20.972 20.785,20.5c35.584,-1.525 58.111,4.493 73.807,17.07c15.919,12.757 24.588,31.508 33.853,52.31c15.242,34.22 30.946,73.593 66.183,109.447c64.118,65.237 127.821,65.2 181.221,50.933c32.141,-8.587 60.157,-22.841 81.378,-29.172c43.067,-12.847 87.384,-11.082 119.456,4.022c18.21,8.576 32.339,21.41 37.894,39.111c6.273,19.987 1.383,44.798 -16.168,74.366c-18.005,30.332 -57.69,58.727 -87.755,88.676c-28.305,28.196 -48.084,58.42 -47.229,89.537c0.788,28.626 18.595,61.474 71.143,95.198Z" style="fill:rgb(84,116,172);"/>
                    <path d="M2715.96,1521.9c-0,-5.175 4.201,-9.377 9.376,-9.377l98.452,0c5.175,0 9.376,4.202 9.376,9.377l-0,162.204c-0,5.175 -4.201,9.376 -9.376,9.376l-98.452,0c-5.175,0 -9.376,-4.201 -9.376,-9.376l-0,-162.204Z" style="fill:rgb(23,40,100);"/>
                    <path d="M2294.64,1333.74c-0,0 172.244,-9.18 210.975,0c48.266,11.441 156.196,82.023 205.526,115.457c15.937,10.838 25.477,28.861 25.477,48.135c0.003,52.444 0.003,158.895 0.003,211.34c-0,19.274 -9.54,37.299 -25.478,48.137c-49.332,33.432 -157.262,104.014 -205.528,115.454c-38.731,9.181 -210.975,0 -210.975,0l-0,-538.523Z" style="fill:rgb(207,226,252);"/>
                    <path d="M2294.64,1339.63l-0,-5.89c-0,0 172.244,-9.18 210.975,0c48.266,11.441 156.196,82.023 205.526,115.457c15.937,10.838 25.477,28.861 25.477,48.135l0,15.21l-20.659,-33.033c-15.264,-24.404 -193.487,-108.229 -220.014,-115.808c-26.527,-7.58 -188.872,-0 -188.872,-0l-12.433,-24.071Z" style="fill:rgb(228,239,253);"/>
                    <path d="M2736.62,1528.67c0.002,56.15 0.002,136.586 0.002,180.005c-0,19.274 -9.54,37.299 -25.478,48.137c-49.332,33.432 -157.262,104.014 -205.528,115.454c-38.731,9.181 -210.975,0 -210.975,0l-0,-34.816c42.369,2.446 176.583,9.422 210.975,1.817c41.002,-9.067 152.394,-74.477 169.232,-86.782c0,-0 -33.302,1.265 -43.572,-4.337c-20.137,-10.984 -58.981,-69.343 -52.084,-90.034c6.897,-20.691 25.905,-34.219 38.995,-40.055c-0,-0 -21.139,-13.264 -13.09,-24.936c8.049,-11.671 32.541,-20.79 69.751,-25.764l-4.652,-11.191l66.424,-27.498Z" style="fill:rgb(169,200,244);"/>
                    <circle cx="2505.15" cy="1603.01" r="30" style="fill:rgb(127,149,206);"/>
                    <path d="M2314.25,1315.27c-0,-8.118 -6.59,-14.708 -14.708,-14.708l-68.635,0c-8.117,0 -14.708,6.59 -14.708,14.708l0,575.48c0,8.118 6.591,14.708 14.708,14.708l68.635,-0c8.118,-0 14.708,-6.59 14.708,-14.708l-0,-575.48Z" style="fill:rgb(169,200,244);"/>
                    <path d="M2314.25,1890.75l-0,-67.533l-98.051,0l0,67.533c0,8.118 6.591,14.708 14.708,14.708l68.635,-0c8.118,-0 14.708,-6.59 14.708,-14.708Z" style="fill:rgb(134,170,233);"/>
                    <path d="M2216.2,1315.27l0,48.439l98.051,-0l-0,-48.439c-0,-8.118 -6.59,-14.708 -14.708,-14.708l-68.635,0c-8.117,0 -14.708,6.59 -14.708,14.708Z" style="fill:rgb(189,213,247);"/>
                </g>
                <path d="M2697.68,1576.11c-0,-0 -82.389,-3.068 -85.458,17.971c-3.068,21.039 18.694,19.286 30.244,21.039c0,0 -46.9,19.286 -51.721,38.134c-4.822,18.848 33.187,79.336 61.519,79.336c45.416,0 86.194,-38.134 86.194,-38.134l-40.778,-118.346Z" style="fill:rgb(255,196,205);"/>
                <path d="M2961.19,1389.24c-0,0 -84.638,75.079 -129.891,104.567c-44.239,28.825 -153.903,65.782 -153.903,65.782l50.598,161.664c-0,0 226.621,-15.067 336.122,-175.91l-102.926,-156.103Z" style="fill:url(#_Linear10);"/>
            </g>
            <path d="M2194.39,1935.08l-28.659,117.776l64.401,-16.848l36.534,76.48l-13.254,-115.957l-51.565,18.767l-7.457,-80.218Z" style="fill:rgb(192,207,240);"/>
            <path d="M1699.89,1042.7l-4.734,121.121l59.781,-29.285l50.976,67.715l-35.987,-111.025l-46.82,28.62l-23.216,-77.146Z" style="fill:rgb(192,207,240);"/>
            <path d="M1915.93,1856.1l3.271,83.69l-41.307,-20.235l-35.222,46.789l24.866,-76.714l32.35,19.775l16.042,-53.305Z" style="fill:rgb(192,207,240);"/>
            <path d="M2251.19,1147.13l3.27,83.69l-41.307,-20.235l-35.222,46.789l24.866,-76.714l32.35,19.775l16.043,-53.305Z" style="fill:rgb(192,207,240);"/>
            <path d="M886.839,2456.6c-0,-44.847 -44.117,-96.088 -112.684,-57.437c43.061,-66.213 -69.726,-140.801 -131.246,-61.257c-30.349,-69.488 -150.44,-45.476 -132.97,41.812c-48.065,-41.812 -130.637,12.345 -94.06,76.882l470.96,0Z" style="fill:url(#_Linear11);"/>
            <path d="M3101.98,2456.6c-0,-44.847 44.116,-96.088 112.683,-57.437c-43.06,-66.213 69.726,-140.801 131.247,-61.257c30.348,-69.488 150.44,-45.476 132.969,41.812c48.066,-41.812 130.637,12.345 94.06,76.882l-470.959,0Z" style="fill:url(#_Linear12);"/>
        </g>
    </g>
    <defs>
        <linearGradient id="_Linear1" x1="0" y1="0" x2="1" y2="0" gradientUnits="userSpaceOnUse" gradientTransform="matrix(26.5268,-123.516,-123.516,-26.5268,1237.19,1268.07)"><stop offset="0" style="stop-color:rgb(255,196,205);stop-opacity:1"/><stop offset="1" style="stop-color:rgb(231,115,132);stop-opacity:1"/></linearGradient>
        <linearGradient id="_Linear2" x1="0" y1="0" x2="1" y2="0" gradientUnits="userSpaceOnUse" gradientTransform="matrix(-8.06734e-15,-131.75,-131.75,8.06734e-15,1307.16,1176.99)"><stop offset="0" style="stop-color:rgb(255,196,205);stop-opacity:1"/><stop offset="1" style="stop-color:rgb(255,163,174);stop-opacity:1"/></linearGradient>
        <linearGradient id="_Linear3" x1="0" y1="0" x2="1" y2="0" gradientUnits="userSpaceOnUse" gradientTransform="matrix(-26.6364,309.372,265.607,22.8683,1245.46,1357.65)"><stop offset="0" style="stop-color:rgb(251,204,90);stop-opacity:1"/><stop offset="1" style="stop-color:rgb(255,173,66);stop-opacity:1"/></linearGradient>
        <linearGradient id="_Linear4" x1="0" y1="0" x2="1" y2="0" gradientUnits="userSpaceOnUse" gradientTransform="matrix(1.49846e-14,244.717,-6.32376,0,1198.14,1476.25)"><stop offset="0" style="stop-color:rgb(218,165,38);stop-opacity:1"/><stop offset="1" style="stop-color:rgb(220,137,29);stop-opacity:1"/></linearGradient>
        <linearGradient id="_Linear5" x1="0" y1="0" x2="1" y2="0" gradientUnits="userSpaceOnUse" gradientTransform="matrix(-26.6364,309.372,265.607,22.8683,1245.46,1357.65)"><stop offset="0" style="stop-color:rgb(251,204,90);stop-opacity:1"/><stop offset="1" style="stop-color:rgb(255,173,66);stop-opacity:1"/></linearGradient>
        <linearGradient id="_Linear6" x1="0" y1="0" x2="1" y2="0" gradientUnits="userSpaceOnUse" gradientTransform="matrix(-18.5688,-103.179,103.179,-18.5688,2852.39,1255.32)"><stop offset="0" style="stop-color:rgb(255,196,205);stop-opacity:1"/><stop offset="1" style="stop-color:rgb(231,115,132);stop-opacity:1"/></linearGradient>
        <linearGradient id="_Linear7" x1="0" y1="0" x2="1" y2="0" gradientUnits="userSpaceOnUse" gradientTransform="matrix(8.06734e-15,-131.75,131.75,8.06734e-15,2782.42,1164.25)"><stop offset="0" style="stop-color:rgb(255,196,205);stop-opacity:1"/><stop offset="1" style="stop-color:rgb(255,163,174);stop-opacity:1"/></linearGradient>
        <linearGradient id="_Linear8" x1="0" y1="0" x2="1" y2="0" gradientUnits="userSpaceOnUse" gradientTransform="matrix(2.85673e-14,466.54,-373.233,2.28539e-14,2870.75,1266.05)"><stop offset="0" style="stop-color:rgb(250,135,120);stop-opacity:1"/><stop offset="1" style="stop-color:rgb(229,39,39);stop-opacity:1"/></linearGradient>
        <linearGradient id="_Linear9" x1="0" y1="0" x2="1" y2="0" gradientUnits="userSpaceOnUse" gradientTransform="matrix(2.49158e-14,371.719,-325.526,1.8209e-14,2846.4,1362.56)"><stop offset="0" style="stop-color:rgb(239,75,54);stop-opacity:1"/><stop offset="1" style="stop-color:rgb(168,39,58);stop-opacity:1"/></linearGradient>
        <linearGradient id="_Linear10" x1="0" y1="0" x2="1" y2="0" gradientUnits="userSpaceOnUse" gradientTransform="matrix(2.85673e-14,466.54,-373.233,2.28539e-14,2870.75,1266.05)"><stop offset="0" style="stop-color:rgb(250,135,120);stop-opacity:1"/><stop offset="1" style="stop-color:rgb(229,39,39);stop-opacity:1"/></linearGradient>
        <linearGradient id="_Linear11" x1="0" y1="0" x2="1" y2="0" gradientUnits="userSpaceOnUse" gradientTransform="matrix(9.53742e-15,155.758,672.783,-4.11961e-14,650.763,2316.54)"><stop offset="0" style="stop-color:rgb(156,235,142);stop-opacity:1"/><stop offset="1" style="stop-color:rgb(23,154,85);stop-opacity:1"/></linearGradient>
        <linearGradient id="_Linear12" x1="0" y1="0" x2="1" y2="0" gradientUnits="userSpaceOnUse" gradientTransform="matrix(-9.53742e-15,155.758,-672.783,-4.11961e-14,3338.05,2316.54)"><stop offset="0" style="stop-color:rgb(156,235,142);stop-opacity:1"/><stop offset="1" style="stop-color:rgb(23,154,85);stop-opacity:1"/></linearGradient>
    </defs>
</svg>
