<?xml version="1.0" encoding="UTF-8"?>
<svg xmlns="http://www.w3.org/2000/svg" version="1.0" viewBox="145 -2 379 379" preserveAspectRatio="xMidYMid meet" class="sr-svg">

<g transform="translate(0.000000,373.000000) scale(0.100000,-0.100000)" fill="#ffffff" stroke="none">
<path d="M3210 3430 c-207 -15 -391 -65 -585 -161 -153 -75 -280-167 -409-294 -219-215 -366-489-427-790 -26-128-37-407-20-526 65-469 308-862 692-1121 167-113 416-214 609-249 101-18 450-19 550 0 106 19 320 91 420 141 147 73 251 145 384 264 193 172 359 440 440 706 60 195 83 505 52 695 -59 363-237 700-492 930-336 302-742 438-1214 405z"/>
</g>

<g transform="translate(0.000000,373.000000) scale(0.100000,-0.100000)" fill="#5B2D8E" stroke="none">
<path d="M3210 3430 c-207 -15 -391 -65 -585 -161 -153 -75 -280 -167 -409 -294 -219 -215 -366 -489 -427 -790 -26 -128 -37 -407 -20 -526 65 -469 308 -862 692 -1121 167 -113 416 -214 609 -249 101 -18 450 -19 550 0 106 19 320 91 420 141 147 73 251 145 384 264 193 172 359 440 440 706 60 195 83 505 52 695 -59 363 -237 700 -492 930 -336 302 -742 438 -1214 405z m252 -461 c233 -49 408 -293 396 -554 -4 -81 -8 -99 -46 -177 -53 -111 -54 -153 -7 -300 151 -473 113 -838 -107 -1045 -105 -98 -232 -144 -394 -142 -140 2 -181 13 -86 23 198 20 335 104 400 244 24 51 27 69 27 167 0 92 -4 120 -23 168 -37 92 -129 205 -338 415 -219 220 -301 318 -357 420 -121 225 -95 484 66 644 120 121 299 173 469 137z m-363 -1191 c24 -80 83 -177 174 -285 115 -138 162 -210 177 -274 32 -134 -38 -276 -173 -346 -46 -25 -63 -28 -147 -28 -78 0 -103 4 -141 23 -74 36 -125 87 -161 159 -27 56 -32 77 -32 137 0 110 29 182 173 435 38 68 78 146 87 172 10 27 21 49 24 49 4 0 12 -19 19 -42z"/>
<path d="M3275 2908 c-16 -6 -49 -24 -72 -39 -156 -107 -197 -329 -98 -534 50 -102 100 -163 334 -406 115 -120 231 -249 257 -286 26 -38 51 -72 55 -77 20 -23 -24 224 -62 347 -37 123 -73 164 -173 197 -161 53 -278 197 -321 394 -32 146 -1 281 86 368 49 49 48 55 -6 36z"/>
<path d="M3405 2816 l-30 -14 26 -1 c76 -3 162 -58 223 -144 61 -86 87 -156 95 -257 l7 -85 13 45 c18 61 9 180 -18 253 -60 154 -212 252 -316 203z"/>
<path d="M2907 1276 c-37 -107 -9 -233 66 -291 41 -30 114 -55 164 -55 45 0 42 14 -6 29 -57 17 -144 99 -171 163 -13 30 -25 85 -29 128 l-6 75 -18 -49z"/>
</g>
</svg>
